<?xml version="1.0" encoding="UTF-8"?>
<svg id="Layer_1" data-name="Layer 1" xmlns="http://www.w3.org/2000/svg" viewBox="0 0 407.42 125.82">
  <defs>
    <style>
      .cls-1 {
        fill: none;
      }

      .cls-2 {
        fill: #fff;
      }
    </style>
  </defs>
  <g>
    <g>
      <path class="cls-2" d="m165.45,36.89l-16.94,60.97h-3.96l-17.75-60.36v49.2c.05,4.77,2.43,7.2,7.2,7.2h1.83v3.96h-22.62v-3.96h1.22c4.77,0,7.2-2.43,7.2-7.2v-47.58c-.05-4.77-2.44-7.2-7.2-7.2h-1.22v-3.96h22.52l13.39,48.8,13.54-48.8h22.42v4.06h-1.22c-4.77.1-7.15,2.43-7.2,7.2v47.48c.05,4.77,2.43,7.2,7.2,7.2h1.22v3.96h-27.64v-3.96h.81c4.77,0,7.2-2.43,7.2-7.2v-49.81Z"/>
      <path class="cls-2" d="m230.09,73.67c0,13.8-7.61,25.67-21.91,25.67s-21.81-11.87-21.81-25.67,7.51-25.67,21.81-25.67,21.91,11.87,21.91,25.67Zm-31.95,0c0,14.2,3.25,21.4,10.04,21.4s10.14-7.2,10.14-21.4-3.35-21.4-10.14-21.4-10.04,7.2-10.04,21.4h0Z"/>
      <path class="cls-2" d="m238.3,37c-.05-3.65-1.42-5.07-5.07-5.07h-1.37v-3.96h16.84v25.27c2.79-3.55,6.54-5.33,11.36-5.33,12.88,0,19.58,10.96,19.58,25.56s-6.7,25.46-19.58,25.46c-5.63.09-11.03-2.26-14.81-6.44l-3.5,5.38h-4.62c.76-3.55,1.16-7.17,1.17-10.8v-50.06Zm9.54,36.47c0,6.59,1.32,20.8,10.45,20.8,8.62,0,9.64-14.1,9.64-20.8s-.71-20.8-9.33-20.8c-9.13,0-10.75,14.2-10.75,20.8h0Z"/>
      <g>
        <path class="cls-2" d="m301.35,88.83c.05,3.65,1.42,5.07,5.07,5.07h1.57v3.96h-23.69v-3.96h1.57c3.65,0,5.07-1.42,5.07-5.07v-30.33c-.05-3.65-1.42-5.07-5.07-5.07h-1.06v-3.96h16.54v39.36Z"/>
        <path class="cls-2" d="m301.86,33.55c.1,3.48-2.63,6.39-6.12,6.49-.11,0-.22,0-.33,0-3.59.03-6.51-2.86-6.54-6.44-.03-3.59,2.86-6.51,6.44-6.54.05,0,.1,0,.15,0,3.53,0,6.39,2.85,6.39,6.38,0,.04,0,.07,0,.11Z"/>
      </g>
      <path class="cls-2" d="m329.2,88.83c.05,3.65,1.42,5.07,5.07,5.07h1.57v3.96h-23.48v-3.96h1.37c3.65,0,5.07-1.42,5.07-5.07v-51.84c-.05-3.65-1.42-5.07-5.07-5.07h-.96v-3.96h16.43v60.87Z"/>
      <path class="cls-2" d="m351.01,73.87c.35,8.06.71,20.59,11.16,20.59,6.85,0,10.3-5.63,12.73-11.16l4.16,2.18c-3.96,8.01-8.83,13.85-18.51,13.85-14.81,0-20.85-12.68-20.85-25.67s6.09-25.67,19.93-25.67c14.91,0,19.53,14.3,19.83,25.87h-28.46Zm17.14-4.46c-.2-11.67-3.04-17.14-8.32-17.14s-8.37,5.93-8.72,17.14h17.04Z"/>
    </g>
    <path class="cls-2" d="m41.94,74.09h-13.98v-13.98h13.98v13.98Zm-13.98-46.13v23.77h4.19v-.7c0-11.18,6.29-18.17,18.17-18.17h.7v50.33c0,6.99-2.8,9.79-9.79,9.79h-2.1v4.89h36.35v-4.89h-2.1c-6.99,0-9.79-2.8-9.79-9.79v-50.33h.7c11.88,0,18.17,6.99,18.17,18.17v.7h4.19v-23.77H27.96Zm44.74,46.13h13.98v-13.98h-13.98v13.98Z"/>
  </g>
  <rect class="cls-1" width="407.42" height="125.82"/>
</svg>